<?xml version="1.0" encoding="utf-8"?>
<!-- Generator: Adobe Illustrator 19.2.1, SVG Export Plug-In . SVG Version: 6.00 Build 0)  -->
<svg version="1.1" xmlns="http://www.w3.org/2000/svg" xmlns:xlink="http://www.w3.org/1999/xlink" x="0px" y="0px"
	 viewBox="0 0 652 652" style="enable-background:new 0 0 652 652;" xml:space="preserve">
<style type="text/css">
	.st0{fill:#0C0407;}
	.st1{fill:#0098D7;}
	.st2{fill:#053572;}
</style>
<g id="Layer_1">
	<g>
		<path class="st0" d="M240,670.9l1.6-0.1c0.1,0.6,0.3,1.2,0.5,1.6c0.3,0.4,0.7,0.7,1.3,1c0.6,0.3,1.2,0.4,2,0.4
			c0.7,0,1.2-0.1,1.7-0.3s0.9-0.5,1.1-0.8s0.4-0.7,0.4-1.1c0-0.4-0.1-0.8-0.4-1.1s-0.6-0.6-1.2-0.8c-0.3-0.1-1.1-0.3-2.3-0.6
			s-2-0.6-2.5-0.8c-0.6-0.3-1.1-0.7-1.4-1.2c-0.3-0.5-0.5-1-0.5-1.6c0-0.7,0.2-1.3,0.6-1.8s0.9-1,1.6-1.3s1.5-0.4,2.4-0.4
			c1,0,1.8,0.2,2.5,0.5c0.7,0.3,1.3,0.8,1.7,1.4s0.6,1.3,0.6,2l-1.6,0.1c-0.1-0.8-0.4-1.4-0.9-1.8c-0.5-0.4-1.3-0.6-2.2-0.6
			c-1,0-1.8,0.2-2.3,0.6c-0.5,0.4-0.7,0.8-0.7,1.4c0,0.5,0.2,0.8,0.5,1.1c0.3,0.3,1.2,0.6,2.6,0.9c1.4,0.3,2.3,0.6,2.9,0.8
			c0.8,0.3,1.3,0.8,1.7,1.3s0.5,1.1,0.5,1.8c0,0.7-0.2,1.3-0.6,1.9c-0.4,0.6-1,1.1-1.7,1.4c-0.7,0.3-1.6,0.5-2.5,0.5
			c-1.2,0-2.1-0.2-2.9-0.5c-0.8-0.3-1.4-0.9-1.9-1.5C240.3,672.6,240,671.8,240,670.9z"/>
		<path class="st0" d="M258.8,672.1l1.6,0.2c-0.3,1-0.7,1.7-1.4,2.2s-1.6,0.8-2.7,0.8c-1.4,0-2.4-0.4-3.2-1.3
			c-0.8-0.8-1.2-2-1.2-3.5c0-1.6,0.4-2.8,1.2-3.7s1.9-1.3,3.1-1.3c1.2,0,2.3,0.4,3.1,1.3s1.2,2,1.2,3.6c0,0.1,0,0.2,0,0.4h-7
			c0.1,1,0.3,1.8,0.9,2.4s1.2,0.8,2,0.8c0.6,0,1.1-0.2,1.5-0.5S258.6,672.7,258.8,672.1z M253.6,669.5h5.2c-0.1-0.8-0.3-1.4-0.6-1.8
			c-0.5-0.6-1.2-0.9-2-0.9c-0.7,0-1.3,0.2-1.8,0.7S253.6,668.7,253.6,669.5z"/>
		<path class="st0" d="M268.8,672.1l1.6,0.2c-0.3,1-0.7,1.7-1.4,2.2s-1.6,0.8-2.7,0.8c-1.4,0-2.4-0.4-3.2-1.3
			c-0.8-0.8-1.2-2-1.2-3.5c0-1.6,0.4-2.8,1.2-3.7s1.9-1.3,3.1-1.3c1.2,0,2.3,0.4,3.1,1.3s1.2,2,1.2,3.6c0,0.1,0,0.2,0,0.4h-7
			c0.1,1,0.3,1.8,0.9,2.4s1.2,0.8,2,0.8c0.6,0,1.1-0.2,1.5-0.5S268.6,672.7,268.8,672.1z M263.6,669.5h5.2c-0.1-0.8-0.3-1.4-0.6-1.8
			c-0.5-0.6-1.2-0.9-2-0.9c-0.7,0-1.3,0.2-1.8,0.7S263.7,668.7,263.6,669.5z"/>
		<path class="st0" d="M272.4,675.1v-12.9h1.6v7.3l3.7-3.8h2l-3.6,3.5l3.9,5.9h-2l-3.1-4.8l-1.1,1.1v3.7H272.4z"/>
		<path class="st0" d="M285.3,675.1l-5-12.9h1.8l3.3,9.4c0.3,0.8,0.5,1.5,0.7,2.1c0.2-0.7,0.4-1.4,0.7-2.1l3.5-9.4h1.7l-5,12.9
			H285.3z"/>
		<path class="st0" d="M298.8,672.1l1.6,0.2c-0.3,1-0.7,1.7-1.4,2.2s-1.6,0.8-2.7,0.8c-1.4,0-2.4-0.4-3.2-1.3
			c-0.8-0.8-1.2-2-1.2-3.5c0-1.6,0.4-2.8,1.2-3.7s1.9-1.3,3.1-1.3c1.2,0,2.3,0.4,3.1,1.3s1.2,2,1.2,3.6c0,0.1,0,0.2,0,0.4h-7
			c0.1,1,0.3,1.8,0.9,2.4s1.2,0.8,2,0.8c0.6,0,1.1-0.2,1.5-0.5S298.6,672.7,298.8,672.1z M293.6,669.5h5.2c-0.1-0.8-0.3-1.4-0.6-1.8
			c-0.5-0.6-1.2-0.9-2-0.9c-0.7,0-1.3,0.2-1.8,0.7S293.7,668.7,293.6,669.5z"/>
		<path class="st0" d="M308.5,671.7l1.6,0.2c-0.2,1.1-0.6,1.9-1.3,2.5c-0.7,0.6-1.6,0.9-2.6,0.9c-1.3,0-2.3-0.4-3.1-1.3
			c-0.8-0.8-1.2-2-1.2-3.6c0-1,0.2-1.9,0.5-2.6s0.8-1.3,1.5-1.7c0.7-0.4,1.4-0.6,2.2-0.6c1,0,1.8,0.3,2.5,0.8s1.1,1.2,1.2,2.2
			l-1.5,0.2c-0.1-0.6-0.4-1.1-0.8-1.4s-0.8-0.5-1.3-0.5c-0.8,0-1.4,0.3-1.9,0.9c-0.5,0.6-0.7,1.5-0.7,2.7c0,1.3,0.2,2.2,0.7,2.7
			s1.1,0.9,1.9,0.9c0.6,0,1.1-0.2,1.6-0.6S308.4,672.4,308.5,671.7z"/>
		<path class="st0" d="M314.9,673.7l0.2,1.4c-0.4,0.1-0.8,0.1-1.2,0.1c-0.6,0-1-0.1-1.3-0.3s-0.5-0.4-0.7-0.7s-0.2-0.9-0.2-1.9V667
			h-1.2v-1.2h1.2v-2.3l1.6-0.9v3.3h1.6v1.2h-1.6v5.5c0,0.5,0,0.7,0.1,0.9s0.1,0.2,0.3,0.3c0.1,0.1,0.3,0.1,0.5,0.1
			C314.4,673.7,314.6,673.7,314.9,673.7z"/>
		<path class="st0" d="M315.9,670.4c0-1.7,0.5-3,1.4-3.8c0.8-0.7,1.8-1,2.9-1c1.3,0,2.3,0.4,3.1,1.3s1.2,2,1.2,3.5
			c0,1.2-0.2,2.1-0.5,2.8c-0.4,0.7-0.9,1.2-1.6,1.6s-1.4,0.6-2.3,0.6c-1.3,0-2.4-0.4-3.2-1.3C316.3,673.2,315.9,672,315.9,670.4z
			 M317.5,670.4c0,1.2,0.3,2.1,0.8,2.7c0.5,0.6,1.2,0.9,2,0.9c0.8,0,1.4-0.3,2-0.9s0.8-1.5,0.8-2.7c0-1.2-0.3-2-0.8-2.6
			c-0.5-0.6-1.2-0.9-2-0.9c-0.8,0-1.4,0.3-2,0.9S317.5,669.2,317.5,670.4z"/>
		<path class="st0" d="M326.4,675.1v-9.3h1.4v1.4c0.4-0.7,0.7-1.1,1-1.3c0.3-0.2,0.6-0.3,1-0.3c0.5,0,1.1,0.2,1.6,0.5l-0.5,1.5
			c-0.4-0.2-0.8-0.3-1.2-0.3c-0.3,0-0.7,0.1-0.9,0.3s-0.5,0.5-0.6,0.9c-0.2,0.6-0.3,1.2-0.3,1.8v4.9H326.4z"/>
		<path class="st0" d="M332.6,675.1v-12.9h1.7v11.4h6.3v1.5H332.6z"/>
		<path class="st0" d="M341.9,670.4c0-1.7,0.5-3,1.4-3.8c0.8-0.7,1.8-1,2.9-1c1.3,0,2.3,0.4,3.1,1.3s1.2,2,1.2,3.5
			c0,1.2-0.2,2.1-0.5,2.8c-0.4,0.7-0.9,1.2-1.6,1.6s-1.4,0.6-2.3,0.6c-1.3,0-2.4-0.4-3.2-1.3C342.3,673.2,341.9,672,341.9,670.4z
			 M343.5,670.4c0,1.2,0.3,2.1,0.8,2.7c0.5,0.6,1.2,0.9,2,0.9c0.8,0,1.4-0.3,2-0.9s0.8-1.5,0.8-2.7c0-1.2-0.3-2-0.8-2.6
			c-0.5-0.6-1.2-0.9-2-0.9c-0.8,0-1.4,0.3-2,0.9S343.5,669.2,343.5,670.4z"/>
		<path class="st0" d="M352.2,675.8l1.5,0.2c0.1,0.5,0.2,0.8,0.5,1c0.4,0.3,0.9,0.4,1.6,0.4c0.7,0,1.3-0.1,1.7-0.4s0.7-0.7,0.8-1.2
			c0.1-0.3,0.1-1,0.1-2c-0.7,0.8-1.6,1.2-2.6,1.2c-1.3,0-2.3-0.5-3-1.4s-1.1-2-1.1-3.3c0-0.9,0.2-1.7,0.5-2.5
			c0.3-0.8,0.8-1.3,1.4-1.7s1.3-0.6,2.2-0.6c1.1,0,2,0.4,2.7,1.3v-1.1h1.5v8.1c0,1.5-0.1,2.5-0.4,3.1c-0.3,0.6-0.8,1.1-1.4,1.4
			c-0.6,0.4-1.4,0.5-2.4,0.5c-1.1,0-2-0.3-2.7-0.8C352.5,677.6,352.2,676.9,352.2,675.8z M353.5,670.2c0,1.2,0.2,2.1,0.7,2.7
			s1.1,0.8,1.8,0.8c0.7,0,1.3-0.3,1.8-0.8s0.7-1.4,0.7-2.6c0-1.1-0.3-2-0.8-2.6c-0.5-0.6-1.1-0.9-1.8-0.9c-0.7,0-1.3,0.3-1.8,0.9
			C353.7,668.3,353.5,669.1,353.5,670.2z"/>
		<path class="st0" d="M361.9,670.4c0-1.7,0.5-3,1.4-3.8c0.8-0.7,1.8-1,2.9-1c1.3,0,2.3,0.4,3.1,1.3s1.2,2,1.2,3.5
			c0,1.2-0.2,2.1-0.5,2.8c-0.4,0.7-0.9,1.2-1.6,1.6s-1.4,0.6-2.3,0.6c-1.3,0-2.4-0.4-3.2-1.3C362.3,673.2,361.9,672,361.9,670.4z
			 M363.5,670.4c0,1.2,0.3,2.1,0.8,2.7c0.5,0.6,1.2,0.9,2,0.9c0.8,0,1.4-0.3,2-0.9s0.8-1.5,0.8-2.7c0-1.2-0.3-2-0.8-2.6
			c-0.5-0.6-1.2-0.9-2-0.9c-0.8,0-1.4,0.3-2,0.9S363.5,669.2,363.5,670.4z"/>
		<path class="st0" d="M372.9,675.1v-1.8h1.8v1.8H372.9z"/>
		<path class="st0" d="M386.9,670.6l1.7,0.4c-0.4,1.4-1,2.5-1.9,3.2s-2.1,1.1-3.4,1.1c-1.4,0-2.5-0.3-3.4-0.8
			c-0.9-0.6-1.5-1.4-2-2.5c-0.5-1.1-0.7-2.2-0.7-3.5c0-1.3,0.3-2.5,0.8-3.5c0.5-1,1.2-1.8,2.2-2.3c0.9-0.5,2-0.8,3.1-0.8
			c1.3,0,2.4,0.3,3.3,1s1.5,1.6,1.8,2.8l-1.7,0.4c-0.3-0.9-0.7-1.6-1.3-2s-1.3-0.6-2.1-0.6c-1,0-1.8,0.2-2.5,0.7
			c-0.7,0.5-1.1,1.1-1.4,1.9c-0.3,0.8-0.4,1.6-0.4,2.5c0,1.1,0.2,2.1,0.5,2.9c0.3,0.8,0.8,1.4,1.5,1.8s1.4,0.6,2.2,0.6
			c1,0,1.8-0.3,2.4-0.8S386.7,671.6,386.9,670.6z"/>
		<path class="st0" d="M389.9,670.4c0-1.7,0.5-3,1.4-3.8c0.8-0.7,1.8-1,2.9-1c1.3,0,2.3,0.4,3.1,1.3s1.2,2,1.2,3.5
			c0,1.2-0.2,2.1-0.5,2.8c-0.4,0.7-0.9,1.2-1.6,1.6s-1.4,0.6-2.3,0.6c-1.3,0-2.4-0.4-3.2-1.3C390.3,673.2,389.9,672,389.9,670.4z
			 M391.5,670.4c0,1.2,0.3,2.1,0.8,2.7c0.5,0.6,1.2,0.9,2,0.9c0.8,0,1.4-0.3,2-0.9s0.8-1.5,0.8-2.7c0-1.2-0.3-2-0.8-2.6
			c-0.5-0.6-1.2-0.9-2-0.9c-0.8,0-1.4,0.3-2,0.9S391.5,669.2,391.5,670.4z"/>
		<path class="st0" d="M400.5,675.1v-9.3h1.4v1.3c0.3-0.5,0.7-0.8,1.2-1.1s1-0.4,1.7-0.4c0.7,0,1.3,0.1,1.7,0.4
			c0.4,0.3,0.8,0.7,0.9,1.2c0.7-1.1,1.7-1.6,2.9-1.6c0.9,0,1.6,0.3,2.1,0.8s0.7,1.3,0.7,2.4v6.4h-1.6v-5.9c0-0.6-0.1-1.1-0.2-1.4
			c-0.1-0.3-0.3-0.5-0.6-0.7s-0.6-0.3-0.9-0.3c-0.7,0-1.2,0.2-1.6,0.7c-0.4,0.4-0.7,1.1-0.7,2.1v5.4h-1.6V669c0-0.7-0.1-1.2-0.4-1.6
			s-0.7-0.5-1.3-0.5c-0.4,0-0.9,0.1-1.2,0.4c-0.4,0.2-0.7,0.6-0.8,1s-0.3,1.1-0.3,2v4.8H400.5z"/>
	</g>
</g>
<g id="Layer_2">
	<g>
		<path class="st1" d="M182.8,431.1c0,0,32.2,0,53.7-71c21.5-71,53.5-71,53.5-71h32.6c0,0-32.1,0-53.5,71c-21.5,71-53.7,71-53.7,71
			H182.8z"/>
		<path class="st1" d="M75.7,431.1c0,0,32.2,0,53.7-71c21.5-71,53.5-71,53.5-71h32.6c0,0-32.1,0-53.5,71c-21.5,71-53.7,71-53.7,71
			H75.7z"/>
		<path class="st2" d="M54.8,360H22.2c21.5,71,53.7,71,53.7,71h32.6C108.5,431.1,76.3,431.1,54.8,360"/>
		<path class="st2" d="M322.8,431.1c0,0-32.2,0-53.7-71c-21.5-71-53.5-71-53.5-71H183c0,0,32.1,0,53.5,71c21.5,71,53.7,71,53.7,71
			H322.8z"/>
		<path class="st2" d="M215,360c0,8.7-7.1,15.8-15.8,15.8c-8.7,0-15.8-7.1-15.8-15.8c0-8.7,7.1-15.8,15.8-15.8
			C207.9,344.3,215,351.3,215,360"/>
	</g>
	<polygon class="st2" points="364.9,342.8 364.9,376.7 356.9,376.7 356.9,342.8 346.2,342.8 346.2,335.7 375.6,335.7 375.6,342.8 	
		"/>
	<g>
		<path class="st2" d="M395.3,376.7v-18.3c0-4-2.5-5.3-4.9-5.3c-2.4,0-4.8,1.4-4.8,5.3v18.3h-7.5v-41h7.5v13.8
			c2-2.1,4.5-3.1,7.2-3.1c6.6,0,10,4.6,10,10.9v19.4H395.3z"/>
		<path class="st2" d="M425.1,355.7c-0.8-1.8-2.5-3.1-5-3.1c-2.5,0-4.2,1.3-5,3.1c-0.5,1.1-0.6,1.9-0.7,3.2h11.4
			C425.8,357.6,425.6,356.8,425.1,355.7 M414.4,364c0,3.9,2.4,6.7,6.6,6.7c3.3,0,4.9-0.9,6.8-2.8l4.5,4.4c-3,3-6,4.7-11.4,4.7
			c-7.1,0-13.9-3.2-13.9-15.4c0-9.8,5.3-15.3,13.1-15.3c8.3,0,13.1,6.1,13.1,14.3v3.3H414.4z"/>
		<path class="st2" d="M456.5,377c-4.4,0-7.5-1.1-10.5-4.2l5.3-5.2c1.3,1.3,2.6,2.3,5.2,2.3c3.9,0,6.4-2.3,6.4-7v-27.2h8v27.5
			C470.9,372.3,464.1,377,456.5,377"/>
		<path class="st2" d="M492.3,364h-5.9c-2.7,0-4.2,1.3-4.2,3.4c0,2.1,1.4,3.5,4.3,3.5c2.1,0,3.4-0.2,4.7-1.4c0.8-0.7,1.1-2,1.1-3.8
			V364z M492.5,376.7v-2.6c-2,2-3.9,2.9-7.4,2.9c-3.4,0-5.9-0.9-7.7-2.6c-1.6-1.7-2.5-4.1-2.5-6.7c0-4.8,3.3-8.7,10.3-8.7h7.1v-1.5
			c0-3.3-1.6-4.7-5.6-4.7c-2.9,0-4.2,0.7-5.8,2.5l-4.8-4.7c2.9-3.2,5.8-4.1,10.8-4.1c8.4,0,12.8,3.6,12.8,10.6v19.7H492.5z"/>
		<path class="st2" d="M518.6,377c-6,0-13.4-3.2-13.4-15.4c0-12.1,7.4-15.3,13.4-15.3c4.1,0,7.3,1.3,9.9,4l-5.1,5.1
			c-1.6-1.7-2.9-2.4-4.8-2.4c-1.8,0-3.2,0.6-4.3,2c-1.2,1.4-1.7,3.5-1.7,6.6c0,3.2,0.5,5.2,1.7,6.7c1.1,1.3,2.5,2,4.3,2
			c2,0,3.3-0.7,4.8-2.4l5.1,5C525.9,375.7,522.8,377,518.6,377"/>
	</g>
	<polygon class="st2" points="551.2,376.7 543.8,364.2 540.7,367.8 540.7,376.7 533.2,376.7 533.2,335.7 540.7,335.7 540.7,359 
		550.6,346.7 559.7,346.7 549,358.8 560.5,376.7 	"/>
	<g>
		<path class="st2" d="M574.1,377c-4.7,0-9-0.5-12.8-4.3l4.9-4.9c2.5,2.5,5.7,2.8,8,2.8c2.6,0,5.3-0.9,5.3-3.1
			c0-1.5-0.8-2.5-3.2-2.8l-4.7-0.5c-5.4-0.5-8.7-2.9-8.7-8.4c0-6.2,5.5-9.6,11.6-9.6c4.7,0,8.6,0.8,11.5,3.5l-4.6,4.7
			c-1.7-1.6-4.4-2-7-2c-3,0-4.3,1.4-4.3,2.9c0,1.1,0.5,2.4,3.1,2.6l4.7,0.5c5.9,0.6,8.9,3.7,8.9,8.8
			C586.8,373.9,581.1,377,574.1,377"/>
		<path class="st2" d="M606.8,354.4c-0.9-0.9-2-1.3-3.5-1.3c-1.5,0-2.6,0.5-3.5,1.3c-1.6,1.6-1.7,4.1-1.7,7.3c0,3.1,0.2,5.8,1.7,7.3
			c0.9,0.9,2,1.3,3.5,1.3c1.5,0,2.6-0.5,3.5-1.3c1.6-1.6,1.7-4.2,1.7-7.3C608.5,358.6,608.4,356,606.8,354.4 M612.6,373.4
			c-1.8,2-4.9,3.7-9.3,3.7s-7.4-1.7-9.3-3.7c-2.7-2.8-3.4-6.2-3.4-11.7c0-5.4,0.7-8.8,3.4-11.6c1.8-2,4.8-3.7,9.3-3.7
			s7.5,1.7,9.3,3.7c2.7,2.8,3.4,6.2,3.4,11.6C616,367.1,615.3,370.5,612.6,373.4"/>
		<path class="st2" d="M638.3,376.7v-18.1c0-4.1-2.6-5.5-5-5.5c-2.4,0-5,1.4-5,5.5v18.1h-7.5v-30h7.3v2.8c2-2.1,4.7-3.1,7.5-3.1
			c3,0,5.4,1,7.1,2.6c2.4,2.4,3.1,5.2,3.1,8.5v19.2H638.3z"/>
	</g>
	<polygon class="st2" points="356.1,430.6 356.1,389.6 364.2,389.6 364.2,423.4 382.7,423.4 382.7,430.6 	"/>
	<g>
		<path class="st2" d="M402.7,417.9h-5.9c-2.7,0-4.2,1.3-4.2,3.4c0,2.1,1.4,3.5,4.3,3.5c2.1,0,3.4-0.2,4.7-1.4
			c0.8-0.7,1.1-2,1.1-3.8V417.9z M402.9,430.6V428c-2,2-3.9,2.9-7.4,2.9c-3.4,0-5.9-0.9-7.7-2.6c-1.6-1.7-2.5-4.1-2.5-6.7
			c0-4.8,3.3-8.7,10.3-8.7h7.1v-1.5c0-3.3-1.6-4.7-5.6-4.7c-2.9,0-4.2,0.7-5.8,2.5l-4.8-4.7c2.9-3.2,5.8-4.1,10.8-4.1
			c8.4,0,12.8,3.6,12.8,10.6v19.7H402.9z"/>
		<path class="st2" d="M428.5,407c-4.5,0-5.1,3.7-5.1,8.6c0,4.9,0.6,8.6,5.1,8.6c4.5,0,5.1-3.7,5.1-8.6
			C433.6,410.7,433,407,428.5,407 M438,428.2c-1.7,1.7-4.4,2.7-7.3,2.7c-3.2,0-5.4-0.9-7.5-3.2v2.8H416v-41h7.5v13.6
			c2-2.2,4.2-3,7.3-3c2.9,0,5.6,1,7.3,2.7c3,3,3.1,8.1,3.1,12.6C441.1,420.1,441,425.2,438,428.2"/>
		<path class="st2" d="M462,408.3c-0.9-0.9-2-1.3-3.5-1.3c-1.5,0-2.6,0.5-3.5,1.3c-1.6,1.6-1.7,4.1-1.7,7.3c0,3.1,0.2,5.8,1.7,7.3
			c0.9,0.9,2,1.3,3.5,1.3c1.5,0,2.6-0.5,3.5-1.3c1.6-1.6,1.7-4.2,1.7-7.3C463.7,412.4,463.5,409.9,462,408.3 M467.8,427.2
			c-1.8,2-4.9,3.7-9.3,3.7s-7.4-1.7-9.3-3.7c-2.7-2.8-3.4-6.2-3.4-11.7c0-5.4,0.7-8.8,3.4-11.6c1.8-2,4.8-3.7,9.3-3.7
			s7.5,1.7,9.3,3.7c2.7,2.8,3.4,6.2,3.4,11.6C471.2,421,470.5,424.4,467.8,427.2"/>
		<path class="st2" d="M492.3,408.8c-1.1-1.1-2.1-1.8-4-1.8c-2.3,0-4.8,1.7-4.8,5.5v18.1H476v-30h7.3v2.9c1.4-1.7,4.3-3.2,7.5-3.2
			c2.9,0,5,0.7,7.1,2.8L492.3,408.8z"/>
		<path class="st2" d="M515.7,417.9h-5.9c-2.7,0-4.2,1.3-4.2,3.4c0,2.1,1.4,3.5,4.3,3.5c2.1,0,3.4-0.2,4.7-1.4
			c0.8-0.7,1.1-2,1.1-3.8V417.9z M515.9,430.6V428c-2,2-3.9,2.9-7.4,2.9c-3.4,0-5.9-0.9-7.7-2.6c-1.6-1.7-2.5-4.1-2.5-6.7
			c0-4.8,3.3-8.7,10.3-8.7h7.1v-1.5c0-3.3-1.6-4.7-5.6-4.7c-2.9,0-4.2,0.7-5.8,2.5l-4.8-4.7c2.9-3.2,5.8-4.1,10.8-4.1
			c8.4,0,12.8,3.6,12.8,10.6v19.7H515.9z"/>
		<path class="st2" d="M539.5,430.6c-6.1,0-8.7-4.3-8.7-8.6v-14.8h-3.2v-5.7h3.2v-8.9h7.5v8.9h5.3v5.7h-5.3v14.4
			c0,1.7,0.8,2.7,2.6,2.7h2.7v6.3H539.5z"/>
		<path class="st2" d="M563.9,408.3c-0.9-0.9-2-1.3-3.5-1.3c-1.5,0-2.6,0.5-3.5,1.3c-1.6,1.6-1.7,4.1-1.7,7.3c0,3.1,0.2,5.8,1.7,7.3
			c0.9,0.9,2,1.3,3.5,1.3c1.5,0,2.6-0.5,3.5-1.3c1.6-1.6,1.7-4.2,1.7-7.3C565.7,412.4,565.5,409.9,563.9,408.3 M569.7,427.2
			c-1.8,2-4.9,3.7-9.3,3.7c-4.4,0-7.4-1.7-9.3-3.7c-2.7-2.8-3.4-6.2-3.4-11.7c0-5.4,0.7-8.8,3.4-11.6c1.8-2,4.8-3.7,9.3-3.7
			c4.4,0,7.5,1.7,9.3,3.7c2.7,2.8,3.4,6.2,3.4,11.6C573.1,421,572.4,424.4,569.7,427.2"/>
		<path class="st2" d="M594.3,408.8c-1.1-1.1-2.1-1.8-4-1.8c-2.3,0-4.8,1.7-4.8,5.5v18.1H578v-30h7.3v2.9c1.4-1.7,4.3-3.2,7.5-3.2
			c2.9,0,5,0.7,7.1,2.8L594.3,408.8z"/>
		<path class="st2" d="M616.5,435.4c-0.6,1.7-1.3,2.9-2.2,3.9c-1.7,1.7-4,2.3-6.4,2.3h-2.9v-6.7h1.7c2.1,0,3-0.5,3.7-2.7l1.3-3.7
			l-10.3-27.9h7.9l6.2,18.5l6-18.5h7.9L616.5,435.4z"/>
	</g>
</g>
</svg>
