<?xml version="1.0" standalone="no"?>
<!DOCTYPE svg PUBLIC "-//W3C//DTD SVG 20010904//EN"
 "http://www.w3.org/TR/2001/REC-SVG-20010904/DTD/svg10.dtd">
<svg version="1.0" xmlns="http://www.w3.org/2000/svg"
 width="745.000000pt" height="792.000000pt" viewBox="0 0 745.000000 792.000000"
 preserveAspectRatio="xMidYMid meet">

<g transform="translate(0.000000,792.000000) scale(0.100000,-0.100000)"
fill="#000000" stroke="none">
<path d="M10 5650 l0 -2270 265 0 265 0 0 2270 0 2270 -265 0 -265 0 0 -2270z"/>
<path d="M6800 5650 l0 -2270 260 0 260 0 0 2270 0 2270 -260 0 -260 0 0
-2270z"/>
<path d="M860 5285 l0 -1905 265 0 265 0 0 1905 0 1905 -265 0 -265 0 0 -1905z"/>
<path d="M5950 5285 l0 -1905 260 0 260 0 0 1905 0 1905 -260 0 -260 0 0
-1905z"/>
<path d="M1710 4920 l0 -1540 265 0 265 0 0 1540 0 1540 -265 0 -265 0 0
-1540z"/>
<path d="M5100 4920 l0 -1540 265 0 265 0 0 1540 0 1540 -265 0 -265 0 0
-1540z"/>
<path d="M2560 4555 l0 -1175 265 0 265 0 0 1175 0 1175 -265 0 -265 0 0
-1175z"/>
<path d="M4250 4555 l0 -1175 265 0 265 0 0 1175 0 1175 -265 0 -265 0 0
-1175z"/>
<path d="M3410 4195 l0 -815 260 0 260 0 0 815 0 815 -260 0 -260 0 0 -815z"/>
<path d="M725 2615 l-7 -75 -284 0 -284 0 0 -85 0 -85 252 -2 251 -3 -34 -34
c-67 -68 -235 -127 -416 -147 -35 -3 -63 -9 -63 -13 0 -3 16 -31 35 -61 19
-30 35 -60 35 -67 0 -9 -19 -13 -70 -13 l-70 0 0 -90 0 -90 560 0 560 0 0
-273 c0 -199 -3 -276 -12 -285 -8 -8 -48 -12 -115 -12 l-103 0 0 235 0 235
-370 0 -370 0 0 -290 0 -290 100 0 100 0 0 55 0 55 236 0 235 0 30 -66 c16
-36 32 -78 35 -93 l6 -27 116 4 c183 6 265 32 300 96 15 27 17 72 20 344 l3
312 105 0 104 0 0 90 0 90 -122 0 -123 1 68 64 68 63 -153 60 c-84 33 -202 77
-263 98 -60 20 -114 41 -119 46 -6 4 117 8 272 8 l282 0 0 85 0 85 -296 0
-296 0 7 75 7 75 -105 0 -105 0 -7 -75z m293 -460 c95 -36 200 -79 235 -95
l62 -29 -480 0 -480 1 109 29 c128 34 235 83 291 133 30 27 47 35 66 32 14 -3
103 -34 197 -71z m-258 -645 l0 -80 -170 0 -170 0 0 80 0 80 170 0 170 0 0
-80z"/>
<path d="M2251 2667 c-57 -149 -81 -203 -127 -293 -65 -127 -126 -216 -160
-234 -13 -8 -22 -18 -20 -24 2 -6 16 -46 31 -89 21 -60 31 -77 42 -72 24 9
205 36 210 32 13 -14 -217 -275 -254 -288 -9 -3 -4 -26 14 -79 15 -41 27 -76
29 -78 1 -2 23 4 48 12 26 9 135 34 244 56 108 22 207 42 220 45 21 5 22 11
22 86 l0 81 -27 -6 c-78 -16 -224 -37 -232 -34 -5 1 27 50 71 108 88 116 218
317 218 336 0 12 -118 94 -136 94 -5 0 -29 -36 -54 -80 -50 -88 -60 -94 -152
-88 l-46 3 60 95 c59 93 192 349 186 355 -2 2 -43 22 -91 44 l-88 40 -8 -22z"/>
<path d="M4294 2627 c-74 -156 -224 -346 -360 -456 l-81 -65 73 -75 c70 -71
74 -74 92 -58 10 9 22 17 25 17 4 0 7 -158 7 -351 0 -381 3 -411 52 -460 47
-47 90 -54 338 -54 205 0 229 2 265 20 65 33 104 110 120 238 l7 54 -31 6
c-17 4 -55 18 -85 32 -29 14 -55 25 -58 25 -3 0 -8 -34 -11 -76 -3 -43 -12
-86 -22 -100 -15 -24 -16 -24 -185 -24 -167 0 -170 0 -185 23 -13 20 -15 65
-13 298 l3 274 133 3 132 3 0 -43 c0 -70 -20 -171 -37 -190 -13 -14 -32 -18
-94 -18 l-77 0 19 -50 c10 -28 19 -63 19 -79 0 -18 6 -31 17 -35 29 -11 186 5
230 24 75 33 96 93 114 340 l12 155 64 66 64 66 -62 79 c-34 43 -116 139 -182
212 l-120 134 16 33 c18 38 18 39 -38 54 -22 6 -61 17 -86 25 l-46 14 -29 -61z
m220 -392 c40 -49 85 -107 101 -127 l27 -38 -257 0 -257 0 75 79 c41 44 98
116 128 160 l54 80 28 -32 c15 -18 60 -72 101 -122z"/>
<path d="M2940 2610 l0 -60 -175 0 -175 0 0 -75 0 -75 175 0 175 0 0 -30 0
-30 -150 0 -150 0 0 -70 0 -70 151 0 150 0 -3 -32 -3 -33 -197 -3 -198 -2 0
-70 0 -70 500 0 500 0 0 70 0 70 -207 2 -208 3 -3 33 -3 32 160 0 161 0 0 70
0 70 -160 0 -160 0 0 30 0 30 185 0 185 0 0 75 0 75 -185 0 -185 0 0 60 0 60
-90 0 -90 0 0 -60z"/>
<path d="M5970 2475 l0 -185 -90 0 -90 0 0 -95 0 -95 90 0 90 0 -2 -271 -3
-271 -92 -35 c-51 -20 -93 -41 -93 -47 0 -15 47 -187 53 -192 4 -4 376 165
497 226 l58 29 -21 86 c-12 47 -25 85 -30 85 -4 0 -39 -13 -78 -30 l-69 -29 0
224 0 225 85 0 85 0 0 95 0 95 -85 0 -85 0 0 185 0 185 -110 0 -110 0 0 -185z"/>
<path d="M5190 1982 c0 -506 -3 -671 -12 -680 -8 -8 -56 -12 -150 -12 l-139 0
12 -22 c7 -13 23 -54 35 -93 l22 -70 124 1 c186 0 274 37 298 123 6 22 10 303
10 729 l0 692 -100 0 -100 0 0 -668z"/>
<path d="M6450 2475 l0 -95 410 0 410 0 0 95 0 95 -410 0 -410 0 0 -95z"/>
<path d="M4860 2010 l0 -480 100 0 100 0 0 480 0 480 -100 0 -100 0 0 -480z"/>
<path d="M6380 1990 l0 -100 130 0 c76 0 130 -4 130 -10 0 -13 -85 -210 -122
-285 -50 -98 -97 -168 -138 -205 l-40 -35 37 -103 c29 -83 39 -102 52 -97 45
18 609 105 680 105 15 0 26 -18 49 -77 17 -43 33 -77 37 -77 29 6 185 78 185
86 0 27 -237 538 -249 538 -3 0 -45 -15 -92 -33 l-87 -32 49 -109 c27 -60 48
-110 47 -111 -6 -5 -391 -45 -395 -41 -2 2 28 59 67 127 38 68 94 177 123 241
l52 118 233 0 233 0 -3 98 -3 97 -487 3 -488 2 0 -100z"/>
<path d="M2620 1665 l0 -255 90 0 90 0 0 180 0 180 238 -2 237 -3 3 -177 2
-178 95 0 95 0 0 255 0 255 -425 0 -425 0 0 -255z"/>
<path d="M2940 1618 c0 -108 -13 -151 -61 -203 -63 -68 -170 -117 -358 -165
l-44 -11 30 -32 c17 -18 44 -51 60 -74 l29 -41 100 32 c202 66 332 154 390
267 26 49 29 65 32 182 l4 127 -91 0 -91 0 0 -82z"/>
<path d="M2494 1474 c-5 -2 -127 -28 -270 -58 l-259 -53 2 -39 c4 -66 24 -144
36 -144 17 0 547 137 553 143 3 3 1 38 -3 78 -7 64 -11 74 -28 76 -11 1 -25 0
-31 -3z"/>
<path d="M3111 1349 c-24 -34 -41 -62 -39 -64 2 -3 48 -23 102 -45 54 -23 144
-64 198 -91 55 -28 101 -49 103 -47 1 2 21 32 45 67 40 59 42 65 25 77 -25 19
-186 88 -297 128 l-95 35 -42 -60z"/>
<path d="M200 351 l0 -341 50 0 50 0 2 208 3 207 65 -155 66 -155 44 -3 45 -3
67 158 67 158 1 -207 0 -208 50 0 50 0 0 341 0 340 -46 -3 -46 -3 -91 -217
c-50 -120 -93 -215 -96 -212 -3 2 -46 100 -96 217 l-90 212 -47 3 -48 3 0
-340z"/>
<path d="M1070 350 l0 -340 45 0 45 0 0 340 0 340 -45 0 -45 0 0 -340z"/>
<path d="M1457 683 c-4 -3 -7 -156 -7 -340 l0 -333 50 0 50 0 0 145 0 146 66
-3 66 -3 66 -142 66 -143 58 0 c32 0 58 2 58 4 0 1 -34 69 -75 149 -69 133
-74 146 -56 152 32 10 89 81 101 126 21 79 -7 165 -70 210 -14 11 -49 23 -79
29 -60 11 -284 14 -294 3z m328 -118 c37 -37 35 -106 -4 -146 -29 -28 -32 -29
-130 -29 l-101 0 0 100 0 100 105 0 c99 0 107 -2 130 -25z"/>
<path d="M2341 668 c-5 -13 -57 -160 -116 -328 -59 -168 -110 -311 -112 -317
-4 -10 10 -13 49 -13 l54 0 24 75 24 76 125 -3 124 -3 25 -72 24 -73 52 0 53
0 -59 168 c-32 92 -86 245 -120 340 l-61 172 -39 0 c-31 0 -40 -4 -47 -22z
m98 -275 c22 -72 41 -134 41 -137 0 -3 -40 -6 -90 -6 -57 0 -90 4 -90 11 0 24
85 278 91 271 3 -4 25 -66 48 -139z"/>
<path d="M3012 677 c-48 -18 -99 -63 -125 -110 -20 -39 -22 -55 -22 -222 0
-177 0 -181 27 -226 89 -152 312 -155 398 -5 43 75 41 86 -19 86 -45 0 -51 -3
-70 -34 -56 -90 -202 -70 -231 32 -15 56 -13 266 4 305 44 103 172 115 228 21
18 -31 24 -34 69 -34 61 0 63 13 17 90 -56 93 -173 134 -276 97z"/>
<path d="M3557 683 c-4 -3 -7 -156 -7 -340 l0 -333 210 0 210 0 0 45 0 44
-157 3 -158 3 -3 293 -2 292 -43 0 c-24 0 -47 -3 -50 -7z"/>
<path d="M4230 350 l0 -340 205 0 205 0 0 45 0 44 -157 3 -158 3 -3 98 -3 97
141 0 140 0 0 50 0 50 -140 0 -140 0 0 95 0 95 160 0 160 0 0 50 0 50 -205 0
-205 0 0 -340z"/>
<path d="M4900 351 l0 -341 50 0 50 0 0 129 0 129 103 4 c122 4 168 23 211 85
50 72 47 190 -6 258 -43 54 -89 68 -255 73 l-153 5 0 -342z m300 224 c38 -20
50 -43 50 -97 -1 -81 -42 -108 -164 -108 l-86 0 0 110 0 110 85 0 c57 0 96 -5
115 -15z"/>
<path d="M5607 683 c-4 -3 -7 -156 -7 -340 l0 -333 210 0 210 0 0 45 0 44
-157 3 -158 3 -3 293 -2 292 -43 0 c-24 0 -47 -3 -50 -7z"/>
<path d="M6264 676 c-3 -8 -4 -124 -2 -258 4 -272 7 -287 74 -352 87 -85 251
-82 330 6 57 62 59 73 62 356 l3 262 -50 0 -50 0 -3 -255 -3 -255 -31 -31
c-74 -74 -197 -46 -224 50 -5 20 -10 138 -10 264 l0 227 -45 0 c-30 0 -47 -5
-51 -14z"/>
<path d="M7117 675 c-78 -27 -117 -88 -117 -182 0 -112 61 -172 195 -193 94
-15 103 -18 125 -43 23 -24 26 -83 7 -108 -45 -59 -211 -54 -280 9 -18 16 -21
15 -53 -23 l-34 -40 28 -23 c52 -43 130 -66 222 -65 95 0 139 15 183 60 47 50
61 140 32 210 -31 74 -80 105 -194 122 -40 6 -82 16 -93 22 -25 13 -46 63 -40
94 15 82 137 95 264 27 4 -2 19 15 34 38 26 39 27 41 8 55 -32 24 -143 55
-198 55 -28 -1 -68 -7 -89 -15z"/>
</g>
</svg>
