<?xml version="1.0" standalone="no"?>
<!DOCTYPE svg PUBLIC "-//W3C//DTD SVG 20010904//EN"
 "http://www.w3.org/TR/2001/REC-SVG-20010904/DTD/svg10.dtd">
<svg version="1.0" xmlns="http://www.w3.org/2000/svg"
 width="267.000000pt" height="267.000000pt" viewBox="0 0 267.000000 267.000000"
 preserveAspectRatio="xMidYMid meet">

<g transform="translate(0.000000,267.000000) scale(0.100000,-0.100000)"
fill="#000000" stroke="none">
<path d="M581 1959 c-14 -11 -87 -52 -163 -91 -146 -74 -218 -129 -218 -168 0
-21 2 -20 40 14 22 20 94 63 161 97 150 75 193 103 208 135 19 42 10 45 -28
13z"/>
<path d="M739 1743 c12 -10 40 -67 62 -128 23 -60 45 -114 50 -119 5 -5 17 12
29 40 11 27 26 62 33 78 l13 29 28 -76 c15 -43 31 -77 35 -77 4 0 29 53 56
117 28 64 59 125 69 135 19 18 19 18 -29 18 -44 0 -47 -1 -30 -14 22 -16 18
-32 -30 -141 l-22 -50 -17 39 c-9 22 -24 61 -34 88 -16 48 -16 50 2 64 18 13
14 14 -40 14 -51 -1 -57 -2 -42 -14 10 -7 24 -28 31 -45 12 -29 12 -39 -6 -87
-11 -30 -23 -54 -27 -54 -6 0 -70 158 -70 174 0 4 10 11 23 16 17 7 7 9 -42 9
-62 1 -63 1 -42 -16z"/>
<path d="M585 1720 c-10 -11 -73 -48 -139 -81 -152 -78 -209 -115 -230 -150
-27 -46 -18 -52 27 -16 23 19 105 67 182 106 134 68 195 114 195 146 0 21 -14
19 -35 -5z"/>
<path d="M1181 1649 c42 -47 49 -62 49 -97 0 -28 -5 -44 -17 -51 -14 -8 -5
-10 37 -11 52 0 53 1 32 16 -13 9 -22 26 -22 42 0 29 62 130 86 139 25 9 15
19 -21 19 -36 0 -42 -5 -25 -22 9 -9 -25 -74 -40 -74 -4 0 -20 16 -35 35 -20
27 -24 39 -16 49 9 10 2 13 -33 12 l-43 -1 48 -56z"/>
<path d="M1394 1685 c-23 -35 -10 -61 48 -92 61 -33 77 -55 59 -77 -22 -26
-66 -20 -94 14 -32 38 -36 38 -28 -2 6 -29 12 -34 50 -41 54 -11 87 2 101 39
14 37 -7 67 -70 99 -51 26 -60 41 -38 63 19 19 47 14 74 -13 31 -31 32 -31 27
-1 -9 43 -102 52 -129 11z"/>
<path d="M1596 1694 c-21 -21 -20 -57 2 -76 9 -9 36 -25 60 -37 48 -24 60 -44
42 -66 -21 -25 -61 -18 -98 18 l-33 32 7 -30 c9 -42 16 -47 71 -48 60 -2 83
14 83 58 0 36 -12 49 -73 79 -32 17 -42 27 -42 46 0 37 43 39 78 4 l27 -27 0
25 c0 18 -7 27 -22 32 -41 11 -86 6 -102 -10z"/>
<path d="M214 1658 c-5 -7 7 -24 31 -45 42 -36 57 -40 74 -19 11 13 -4 25 -91
73 -4 2 -10 -2 -14 -9z"/>
<path d="M397 1549 c-16 -9 -10 -15 47 -44 36 -18 84 -47 108 -64 36 -27 44
-29 46 -15 5 23 -41 68 -108 103 -64 34 -67 35 -93 20z"/>
<path d="M215 1419 c-12 -18 26 -48 103 -85 66 -32 112 -38 112 -16 0 4 -30
21 -66 37 -37 16 -80 40 -97 52 -35 26 -43 28 -52 12z"/>
<path d="M585 1381 c-17 -17 -118 -70 -260 -137 -53 -25 -125 -95 -125 -123 0
-20 3 -19 36 13 19 19 103 69 187 112 151 77 197 109 197 139 0 20 -11 19 -35
-4z"/>
<path d="M760 1330 c17 -17 20 -33 20 -110 0 -77 -3 -93 -20 -110 l-20 -20 58
1 c31 0 50 3 42 6 -26 10 -30 26 -30 125 0 89 2 98 22 112 21 15 20 16 -35 16
l-57 0 20 -20z"/>
<path d="M1194 1303 c-6 -4 -16 -18 -23 -30 -17 -33 -1 -57 62 -90 59 -32 75
-67 36 -82 -33 -11 -55 -3 -84 31 -24 29 -25 29 -25 6 0 -37 14 -48 66 -54 41
-5 53 -2 72 15 42 40 21 84 -58 124 -50 25 -62 50 -31 67 25 13 56 0 83 -34
l18 -21 0 27 c0 15 -4 29 -9 32 -17 11 -96 17 -107 9z"/>
<path d="M908 1288 c20 -10 22 -18 22 -95 0 -77 -2 -84 -22 -93 -18 -7 -12 -9
27 -8 28 0 43 2 34 5 -19 5 -29 44 -29 116 l0 50 26 -24 c14 -13 49 -54 77
-91 28 -37 54 -65 59 -62 4 3 8 47 8 98 0 58 4 96 12 104 9 9 4 12 -26 12 -34
0 -36 -1 -22 -16 11 -11 16 -34 16 -76 0 -71 -1 -70 -75 26 -47 61 -52 65 -90
65 -36 0 -38 -1 -17 -11z"/>
<path d="M1346 1284 c-14 -38 -6 -47 19 -20 45 49 55 37 55 -68 0 -66 -4 -96
-12 -99 -7 -3 7 -5 32 -5 25 0 39 2 33 5 -9 3 -13 33 -13 99 0 102 9 115 50
74 l20 -20 0 25 c0 25 -1 25 -89 25 -72 0 -90 -3 -95 -16z"/>
<path d="M1583 1289 c14 -8 17 -24 17 -92 0 -51 -5 -88 -12 -95 -9 -9 -3 -12
27 -12 30 0 36 3 27 12 -7 7 -12 43 -12 93 0 50 5 86 12 93 9 9 2 12 -32 12
-36 -1 -41 -3 -27 -11z"/>
<path d="M1690 1275 l0 -25 20 20 c41 41 50 28 50 -74 0 -66 -4 -96 -12 -99
-7 -3 7 -5 32 -5 25 0 39 2 33 5 -9 3 -13 33 -13 99 0 106 9 117 57 67 l26
-28 -6 25 c-4 14 -7 28 -7 33 0 4 -40 7 -90 7 -89 0 -90 0 -90 -25z"/>
<path d="M1918 1288 c7 -7 12 -42 12 -87 0 -82 4 -92 37 -110 33 -17 77 -13
107 10 24 19 26 27 26 90 0 39 5 79 10 90 9 17 7 19 -17 19 -21 0 -24 -3 -15
-12 7 -7 12 -41 12 -84 0 -64 -3 -75 -22 -88 -29 -20 -72 -20 -92 0 -20 19
-23 153 -4 172 9 9 3 12 -27 12 -30 0 -36 -3 -27 -12z"/>
<path d="M2157 1293 c-4 -3 -7 -17 -7 -29 l0 -23 25 24 c46 47 55 36 55 -69 0
-66 -4 -96 -12 -99 -7 -3 7 -6 32 -6 35 0 41 2 28 10 -15 8 -18 25 -18 99 0
83 2 90 20 90 10 0 28 -10 40 -22 l20 -22 0 27 0 27 -88 0 c-49 0 -92 -3 -95
-7z"/>
<path d="M2388 1293 c8 -3 12 -33 12 -99 0 -68 -4 -94 -12 -96 -28 -3 100 -13
133 -10 27 3 40 10 48 28 17 37 14 38 -20 9 -25 -20 -40 -25 -72 -23 l-40 3 0
45 c0 40 3 45 23 48 15 3 29 -3 37 -14 12 -16 13 -15 13 14 0 30 -1 31 -24 20
-38 -17 -53 -6 -48 36 4 33 7 36 37 36 18 0 43 -9 57 -20 l25 -19 -5 24 c-4
24 -7 25 -91 24 -47 0 -80 -3 -73 -6z"/>
<path d="M495 1260 c-3 -5 12 -21 34 -34 22 -14 42 -30 46 -36 10 -17 25 -11
25 9 0 39 -87 90 -105 61z"/>
<path d="M585 1150 c-10 -11 -83 -53 -164 -95 -152 -79 -175 -94 -204 -135
-30 -44 -19 -53 22 -18 21 18 105 67 186 108 84 43 157 86 171 103 38 45 28
80 -11 37z"/>
</g>
</svg>
